<?xml version="1.0" encoding="UTF-8" standalone="no"?>
<!DOCTYPE svg PUBLIC "-//W3C//DTD SVG 1.1//EN"
 "http://www.w3.org/Graphics/SVG/1.1/DTD/svg11.dtd">
<!-- Generated by graphviz version 13.1.2 (0)
 -->
<!-- Title: G Pages: 1 -->
<svg width="635pt" height="271pt"
 viewBox="0.00 0.00 635.00 271.00" xmlns="http://www.w3.org/2000/svg" xmlns:xlink="http://www.w3.org/1999/xlink">
<g id="graph0" class="graph" transform="scale(1 1) rotate(0) translate(4 267.38)">
<title>G</title><style>.edge>path:hover{stroke-width:8}</style>
<polygon fill="white" stroke="none" points="-4,4 -4,-267.38 630.84,-267.38 630.84,4 -4,4"/>
<!-- bs4 -->
<g id="node1" class="node">
<title>bs4</title><style>.edge>path:hover{stroke-width:8}</style>
<ellipse fill="#c04040" stroke="black" cx="461.84" cy="-245.38" rx="27" ry="18"/>
<text xml:space="preserve" text-anchor="middle" x="461.84" y="-242.25" font-family="Helvetica,sans-Serif" font-size="10.00" fill="#ffffff">bs4</text>
</g>
<!-- src_scrape_and_clean -->
<g id="node10" class="node">
<title>src_scrape_and_clean</title><style>.edge>path:hover{stroke-width:8}</style>
<ellipse fill="#3865a8" stroke="black" cx="498.84" cy="-95.69" rx="72.83" ry="23.69"/>
<text xml:space="preserve" text-anchor="middle" x="498.84" y="-98.94" font-family="Helvetica,sans-Serif" font-size="10.00" fill="#ffffff">src.</text>
<text xml:space="preserve" text-anchor="middle" x="498.84" y="-86.19" font-family="Helvetica,sans-Serif" font-size="10.00" fill="#ffffff">scrape_and_clean</text>
</g>
<!-- bs4&#45;&gt;src_scrape_and_clean -->
<g id="edge1" class="edge">
<title>bs4&#45;&gt;src_scrape_and_clean</title><style>.edge>path:hover{stroke-width:8}</style>
<path fill="none" stroke="black" d="M471.6,-228.12C479.66,-214.21 491.02,-193.45 498.84,-174.38"/>
</g>
<!-- flask -->
<g id="node2" class="node">
<title>flask</title><style>.edge>path:hover{stroke-width:8}</style>
<ellipse fill="#a6c040" stroke="black" cx="599.84" cy="-173.38" rx="27" ry="18"/>
<text xml:space="preserve" text-anchor="middle" x="599.84" y="-170.25" font-family="Helvetica,sans-Serif" font-size="10.00" fill="#000000">flask</text>
</g>
<!-- src_app -->
<g id="node5" class="node">
<title>src_app</title><style>.edge>path:hover{stroke-width:8}</style>
<ellipse fill="#3d5e8f" stroke="black" cx="344.84" cy="-18" rx="31.36" ry="18"/>
<text xml:space="preserve" text-anchor="middle" x="344.84" y="-14.88" font-family="Helvetica,sans-Serif" font-size="10.00" fill="#ffffff">src.app</text>
</g>
<!-- flask&#45;&gt;src_app -->
<g id="edge2" class="edge">
<title>flask&#45;&gt;src_app</title><style>.edge>path:hover{stroke-width:8}</style>
<path fill="none" stroke="black" d="M601.82,-155.29C603.37,-133.03 602.42,-94.32 580.84,-72 554.45,-44.7 447.58,-29.52 387.1,-22.96"/>
<polygon fill="#a6c040" stroke="black" points="387.83,-19.52 377.52,-21.96 387.1,-26.48 387.83,-19.52"/>
</g>
<!-- psycopg -->
<g id="node3" class="node">
<title>psycopg</title><style>.edge>path:hover{stroke-width:8}</style>
<ellipse fill="#0cf368" stroke="black" cx="285.84" cy="-245.38" rx="34.57" ry="18"/>
<text xml:space="preserve" text-anchor="middle" x="285.84" y="-242.25" font-family="Helvetica,sans-Serif" font-size="10.00" fill="#000000">psycopg</text>
</g>
<!-- psycopg&#45;&gt;src_app -->
<g id="edge3" class="edge">
<title>psycopg&#45;&gt;src_app</title><style>.edge>path:hover{stroke-width:8}</style>
<path fill="none" stroke="black" d="M174.84,-172.38C156.32,-130.83 127.34,-108.23 154.84,-72 172.71,-48.47 252.82,-32.58 303.14,-24.72"/>
<polygon fill="#0cf368" stroke="black" points="303.45,-28.21 312.82,-23.26 302.41,-21.29 303.45,-28.21"/>
</g>
<!-- src_load_data -->
<g id="node7" class="node">
<title>src_load_data</title><style>.edge>path:hover{stroke-width:8}</style>
<ellipse fill="#4c75b3" stroke="black" cx="213.84" cy="-95.69" rx="49.71" ry="18"/>
<text xml:space="preserve" text-anchor="middle" x="213.84" y="-92.56" font-family="Helvetica,sans-Serif" font-size="10.00" fill="#ffffff">src.load_data</text>
</g>
<!-- psycopg&#45;&gt;src_load_data -->
<g id="edge4" class="edge">
<title>psycopg&#45;&gt;src_load_data</title><style>.edge>path:hover{stroke-width:8}</style>
<path fill="none" stroke="black" d="M174.84,-172.38C167.12,-155.05 176.94,-136.07 188.66,-121.45"/>
<polygon fill="#0cf368" stroke="black" points="191.13,-123.94 195.07,-114.1 185.86,-119.34 191.13,-123.94"/>
</g>
<!-- src_load_new_data -->
<g id="node8" class="node">
<title>src_load_new_data</title><style>.edge>path:hover{stroke-width:8}</style>
<ellipse fill="#4073c0" stroke="black" cx="344.84" cy="-95.69" rx="63.29" ry="23.69"/>
<text xml:space="preserve" text-anchor="middle" x="344.84" y="-98.94" font-family="Helvetica,sans-Serif" font-size="10.00" fill="#ffffff">src.</text>
<text xml:space="preserve" text-anchor="middle" x="344.84" y="-86.19" font-family="Helvetica,sans-Serif" font-size="10.00" fill="#ffffff">load_new_data</text>
</g>
<!-- psycopg&#45;&gt;src_load_new_data -->
<g id="edge5" class="edge">
<title>psycopg&#45;&gt;src_load_new_data</title><style>.edge>path:hover{stroke-width:8}</style>
<path fill="none" stroke="black" d="M174.84,-172.38C169.61,-160.63 236.61,-134.23 288.04,-115.94"/>
<polygon fill="#0cf368" stroke="black" points="289.05,-119.29 297.32,-112.67 286.72,-112.69 289.05,-119.29"/>
</g>
<!-- src_query_data -->
<g id="node9" class="node">
<title>src_query_data</title><style>.edge>path:hover{stroke-width:8}</style>
<ellipse fill="#3d6eb8" stroke="black" cx="53.84" cy="-95.69" rx="53.84" ry="18"/>
<text xml:space="preserve" text-anchor="middle" x="53.84" y="-92.56" font-family="Helvetica,sans-Serif" font-size="10.00" fill="#ffffff">src.query_data</text>
</g>
<!-- psycopg&#45;&gt;src_query_data -->
<g id="edge6" class="edge">
<title>psycopg&#45;&gt;src_query_data</title><style>.edge>path:hover{stroke-width:8}</style>
<path fill="none" stroke="black" d="M255.94,-235.91C228.35,-226.21 189.51,-207.25 174.84,-174.38"/>
<path fill="none" stroke="black" d="M174.84,-172.38C161.84,-143.21 131.25,-124.23 104.09,-112.56"/>
<polygon fill="#0cf368" stroke="black" points="105.49,-109.36 94.91,-108.87 102.88,-115.85 105.49,-109.36"/>
</g>
<!-- psycopg&#45;&gt;src_scrape_and_clean -->
<g id="edge7" class="edge">
<title>psycopg&#45;&gt;src_scrape_and_clean</title><style>.edge>path:hover{stroke-width:8}</style>
<path fill="none" stroke="black" d="M318.66,-239.57C374.86,-230.46 484.85,-208.5 498.84,-174.38"/>
<path fill="none" stroke="black" d="M498.84,-172.38C504.13,-159.49 505.04,-144.31 504.29,-130.93"/>
<polygon fill="#0cf368" stroke="black" points="507.8,-130.9 503.41,-121.26 500.83,-131.53 507.8,-130.9"/>
</g>
<!-- psycopg_sql -->
<g id="node4" class="node">
<title>psycopg_sql</title><style>.edge>path:hover{stroke-width:8}</style>
<ellipse fill="#53b67b" stroke="black" cx="53.84" cy="-245.38" rx="45.12" ry="18"/>
<text xml:space="preserve" text-anchor="middle" x="53.84" y="-242.25" font-family="Helvetica,sans-Serif" font-size="10.00" fill="#000000">psycopg.sql</text>
</g>
<!-- psycopg_sql&#45;&gt;src_query_data -->
<g id="edge8" class="edge">
<title>psycopg_sql&#45;&gt;src_query_data</title><style>.edge>path:hover{stroke-width:8}</style>
<path fill="none" stroke="black" d="M53.84,-227.15C53.84,-202.13 53.84,-155.47 53.84,-125.26"/>
<polygon fill="#53b67b" stroke="black" points="57.34,-125.32 53.84,-115.32 50.34,-125.32 57.34,-125.32"/>
</g>
<!-- src_date_utils -->
<g id="node6" class="node">
<title>src_date_utils</title><style>.edge>path:hover{stroke-width:8}</style>
<ellipse fill="#4778c2" stroke="black" cx="420.84" cy="-173.38" rx="49.71" ry="18"/>
<text xml:space="preserve" text-anchor="middle" x="420.84" y="-170.25" font-family="Helvetica,sans-Serif" font-size="10.00" fill="#ffffff">src.date_utils</text>
</g>
<!-- src_date_utils&#45;&gt;src_scrape_and_clean -->
<g id="edge9" class="edge">
<title>src_date_utils&#45;&gt;src_scrape_and_clean</title><style>.edge>path:hover{stroke-width:8}</style>
<path fill="none" stroke="black" d="M437.39,-156.32C446.35,-147.63 457.71,-136.6 468.22,-126.4"/>
<polygon fill="#4778c2" stroke="black" points="470.58,-128.99 475.32,-119.51 465.71,-123.97 470.58,-128.99"/>
</g>
<!-- src_load_new_data&#45;&gt;src_app -->
<g id="edge10" class="edge">
<title>src_load_new_data&#45;&gt;src_app</title><style>.edge>path:hover{stroke-width:8}</style>
<path fill="none" stroke="black" d="M344.84,-71.57C344.84,-64.06 344.84,-55.64 344.84,-47.77"/>
<polygon fill="#4073c0" stroke="black" points="348.34,-47.97 344.84,-37.97 341.34,-47.97 348.34,-47.97"/>
</g>
<!-- src_query_data&#45;&gt;src_app -->
<g id="edge11" class="edge">
<title>src_query_data&#45;&gt;src_app</title><style>.edge>path:hover{stroke-width:8}</style>
<path fill="none" stroke="black" d="M90.01,-81.96C100.24,-78.54 111.43,-74.97 121.84,-72 185.21,-53.94 259.9,-37.07 304.76,-27.4"/>
<polygon fill="#3d6eb8" stroke="black" points="305.24,-30.88 314.28,-25.36 303.77,-24.04 305.24,-30.88"/>
</g>
<!-- src_scrape_and_clean&#45;&gt;src_app -->
<g id="edge12" class="edge">
<title>src_scrape_and_clean&#45;&gt;src_app</title><style>.edge>path:hover{stroke-width:8}</style>
<path fill="none" stroke="black" d="M459.58,-75.39C434.43,-63.03 402.15,-47.16 378.23,-35.41"/>
<polygon fill="#3865a8" stroke="black" points="380.09,-32.42 369.57,-31.15 377,-38.71 380.09,-32.42"/>
</g>
<!-- urllib3 -->
<g id="node11" class="node">
<title>urllib3</title><style>.edge>path:hover{stroke-width:8}</style>
<ellipse fill="#a640c0" stroke="black" cx="535.84" cy="-245.38" rx="28.6" ry="18"/>
<text xml:space="preserve" text-anchor="middle" x="535.84" y="-242.25" font-family="Helvetica,sans-Serif" font-size="10.00" fill="#ffffff">urllib3</text>
</g>
<!-- urllib3&#45;&gt;src_scrape_and_clean -->
<g id="edge13" class="edge">
<title>urllib3&#45;&gt;src_scrape_and_clean</title><style>.edge>path:hover{stroke-width:8}</style>
<path fill="none" stroke="black" d="M519.85,-230.03C506.43,-216.15 490.65,-194.34 498.84,-174.38"/>
</g>
</g>
</svg>
